<svg  width="96" height="22" viewBox="0 0 96 22" fill="none"
    xmlns="http://www.w3.org/2000/svg">
    <path  fill-rule="evenodd" clip-rule="evenodd"
        d="M85.2114 21.5771C91.1698 21.5771 96 16.7469 96 10.7886C96 10.1411 95.943 9.50696 95.8336 8.89089C95.7478 13.0919 92.3155 16.4711 88.0939 16.4711C86.8555 16.4711 85.685 16.1803 84.647 15.6633C84.3712 15.5259 84.0559 15.4802 83.7582 15.5598L82.0349 16.0209C81.2868 16.2211 80.6025 15.5367 80.8026 14.7886L81.2637 13.0654C81.3434 12.7677 81.2976 12.4524 81.1602 12.1765C80.6432 11.1385 80.3524 9.96806 80.3524 8.72968C80.3524 4.45422 83.8184 0.988266 88.0939 0.988266C88.9129 0.988266 89.7022 1.11546 90.4432 1.35117C88.8936 0.490297 87.1098 0 85.2114 0C79.2531 0 74.4229 4.83021 74.4229 10.7886C74.4229 16.7469 79.2531 21.5771 85.2114 21.5771ZM86.5677 11.007C85.6312 10.2103 84.6102 9.09881 84.6102 8.03947C84.6102 5.96696 86.5263 5.19318 88.0939 6.79418C89.6614 5.19318 91.5775 5.96696 91.5775 8.03946C91.5775 9.09883 90.5565 10.2103 89.62 11.007C88.9822 11.5496 88.6633 11.8209 88.0939 11.8209C87.5244 11.8209 87.2055 11.5496 86.5677 11.007Z"
        fill="#995BFF"></path>
    <path 
        d="M5.3693 19.2111C4.82611 19.2111 4.31244 19.1048 3.82829 18.8922C3.34414 18.6915 2.91903 18.4081 2.55297 18.042C2.19871 17.6878 1.91531 17.2686 1.70275 16.7844C1.50201 16.3003 1.40163 15.7866 1.40163 15.2434V10.5672L3.35004 10.5849V14.96C3.35004 15.2316 3.40318 15.4855 3.50946 15.7216C3.61573 15.9578 3.75744 16.1645 3.93456 16.3416C4.11169 16.5187 4.31834 16.6545 4.55451 16.749C4.79068 16.8553 5.03866 16.9084 5.29845 16.9084H8.48675C8.93548 16.9084 9.31335 16.7549 9.62037 16.4479C9.92739 16.1408 10.0809 15.7689 10.0809 15.332V3.97806H12.0293V12.9762C12.0293 13.2123 12.112 13.4131 12.2773 13.5784C12.4426 13.7319 12.6434 13.8087 12.8795 13.8087H13.9777C14.0486 13.8087 14.1076 13.8382 14.1548 13.8972C14.2021 13.9445 14.2257 13.9976 14.2257 14.0566V15.8456C14.2257 15.9165 14.2021 15.9814 14.1548 16.0405C14.1076 16.0877 14.0486 16.1113 13.9777 16.1113H13.1984C12.9504 16.1113 12.7319 16.0759 12.543 16.0051C12.354 15.9342 12.1769 15.7866 12.0116 15.5622V15.8811C12.0116 16.2353 11.9289 16.6073 11.7636 16.997C11.5983 17.3866 11.3621 17.7468 11.0551 18.0774C10.7599 18.4081 10.3938 18.6797 9.95692 18.8922C9.52 19.1048 9.02404 19.2111 8.46904 19.2111H5.3693ZM18.6987 16.1113C18.2736 16.1113 17.878 16.0287 17.512 15.8633C17.1459 15.698 16.8212 15.4323 16.5378 15.0663C16.2544 15.4323 15.9237 15.698 15.5459 15.8633C15.1798 16.0287 14.7842 16.1113 14.3591 16.1113H13.9694C13.9104 16.1113 13.8572 16.0877 13.81 16.0405C13.751 15.9814 13.7214 15.9224 13.7214 15.8633V14.0744C13.7214 14.0035 13.751 13.9445 13.81 13.8972C13.8572 13.8382 13.9104 13.8087 13.9694 13.8087H14.6956C14.9318 13.7969 15.1326 13.7083 15.2979 13.543C15.4632 13.3777 15.5459 13.1769 15.5459 12.9407V9.77015H17.4943V12.9762C17.4943 13.1887 17.5828 13.3836 17.76 13.5607C17.9371 13.726 18.126 13.8087 18.3268 13.8087H18.8936C19.1297 13.8087 19.3364 13.7378 19.5135 13.5961C19.6906 13.4426 19.8028 13.2478 19.8501 13.0116L20.47 9.80557L22.383 10.1598L21.8516 12.8522C21.7926 13.1002 21.8457 13.3245 22.011 13.5253C22.1882 13.7142 22.4007 13.8087 22.6487 13.8087H23.1446C23.3808 13.8087 23.5816 13.7319 23.7469 13.5784C23.9122 13.4131 23.9949 13.2123 23.9949 12.9762V9.30961H25.9433V12.9585C25.9433 13.1946 26.0259 13.3954 26.1912 13.5607C26.3566 13.726 26.5573 13.8087 26.7935 13.8087H27.502C27.5728 13.8087 27.6319 13.8382 27.6791 13.8972C27.7264 13.9445 27.75 13.9976 27.75 14.0566V15.8456C27.75 15.9165 27.7264 15.9814 27.6791 16.0405C27.6437 16.0877 27.5847 16.1113 27.502 16.1113H27.1123C26.6872 16.1113 26.2916 16.0287 25.9256 15.8633C25.5595 15.698 25.2407 15.4323 24.9691 15.0663C24.6857 15.4323 24.355 15.698 23.9771 15.8633C23.5993 16.0287 23.1978 16.1113 22.7727 16.1113C22.3948 16.1113 22.0228 16.0346 21.6568 15.8811C21.2907 15.7157 20.9896 15.4441 20.7534 15.0663C20.4818 15.4441 20.1689 15.7157 19.8146 15.8811C19.4604 16.0346 19.0884 16.1113 18.6987 16.1113ZM35.3784 15.4382L32.3672 15.8456C30.9856 16.0228 29.6158 16.1113 28.2578 16.1113H27.4962C27.3545 16.1113 27.2718 16.0287 27.2482 15.8633V14.0744C27.2482 14.0035 27.2718 13.9445 27.3191 13.8972C27.3545 13.8382 27.4135 13.8087 27.4962 13.8087H29.2675C29.2084 13.726 29.1553 13.6433 29.108 13.5607C29.0726 13.4662 29.0431 13.3717 29.0195 13.2773L28.6829 11.5237C28.6003 11.0986 28.618 10.6971 28.7361 10.3192C28.8542 9.92956 29.0372 9.58711 29.2852 9.2919C29.545 8.98488 29.8579 8.7428 30.224 8.56568C30.59 8.38855 30.9856 8.29999 31.4107 8.29999H34.5636V10.5141H31.3221C31.0978 10.5141 30.9148 10.6026 30.773 10.7798C30.6313 10.9451 30.5841 11.1399 30.6313 11.3643L31.1273 13.7555L35.0595 13.3304L35.3784 15.4382ZM39.6315 11.5591C39.5489 11.6182 39.4662 11.7008 39.3835 11.8071C39.3127 11.9016 39.2773 12.0374 39.2773 12.2145V12.9585C39.2773 13.0765 39.3009 13.2005 39.3481 13.3304C39.4072 13.4603 39.4839 13.5843 39.5784 13.7024C39.6847 13.8087 39.8086 13.9031 39.9504 13.9858C40.0921 14.0566 40.2574 14.0921 40.4463 14.0921H41.2611C41.4737 14.0921 41.6567 14.0507 41.8102 13.9681C41.9637 13.8736 42.0818 13.7673 42.1645 13.6492C42.2589 13.5312 42.3239 13.4131 42.3593 13.295C42.4065 13.1651 42.4301 13.0706 42.4301 13.0116V12.2677C42.4301 12.1378 42.3947 12.0079 42.3239 11.878C42.2648 11.7481 42.1704 11.6418 42.0405 11.5591C41.9932 11.5355 41.8988 11.4765 41.7571 11.382C41.6272 11.2875 41.4796 11.1931 41.3142 11.0986C41.1371 10.9923 40.9423 10.8683 40.7297 10.7266L39.6315 11.5591ZM39.0116 7.2195L43.0855 9.92956C43.5815 10.2602 43.918 10.644 44.0951 11.0809C44.2841 11.5178 44.3786 11.9429 44.3786 12.3562V12.9585C44.3786 13.3481 44.3077 13.7437 44.166 14.1452C44.0361 14.5349 43.8295 14.8891 43.546 15.208C43.2626 15.5268 42.9084 15.7925 42.4833 16.0051C42.07 16.2058 41.5799 16.3062 41.0131 16.3062H40.6412C40.1098 16.3062 39.6374 16.2058 39.2241 16.0051C38.8108 15.7925 38.4625 15.5268 38.1791 15.208C37.8957 14.8773 37.6831 14.5172 37.5414 14.1275C37.3997 13.726 37.3289 13.3363 37.3289 12.9585V12.4094C37.3289 12.1259 37.3643 11.8544 37.4351 11.5946C37.5178 11.3348 37.6241 11.0986 37.754 10.8861C37.8839 10.6617 38.0256 10.4669 38.1791 10.3015C38.3444 10.1362 38.5156 10.0063 38.6927 9.91185C38.7872 9.85281 38.864 9.81148 38.923 9.78786C38.9821 9.75243 39.0293 9.72291 39.0647 9.6993C39.1001 9.68749 39.1238 9.67568 39.1356 9.66387L37.9488 8.86679L39.0116 7.2195ZM50.2027 15.8633C50.2027 16.0287 50.1201 16.1113 49.9548 16.1113H49.4411C49.016 16.1113 48.6145 16.0346 48.2366 15.8811C47.8587 15.7157 47.5281 15.4914 47.2447 15.208C46.9613 14.9246 46.7369 14.5939 46.5716 14.2161C46.4063 13.8382 46.3236 13.4367 46.3236 13.0116V3.97806H48.272V12.9585C48.272 13.1946 48.3547 13.3954 48.52 13.5607C48.6853 13.726 48.8861 13.8087 49.1223 13.8087H49.9548C50.0256 13.8087 50.0847 13.8382 50.1319 13.8972C50.1791 13.9445 50.2027 14.0035 50.2027 14.0744V15.8633ZM49.9485 13.8087H52.57C52.7353 13.8087 52.818 13.8913 52.818 14.0566V15.8633C52.818 16.0287 52.7353 16.1113 52.57 16.1113H49.9485C49.7832 16.1113 49.7006 16.0287 49.7006 15.8633V14.0566C49.7006 13.8913 49.7832 13.8087 49.9485 13.8087ZM52.5778 13.8087H55.1993C55.3646 13.8087 55.4472 13.8913 55.4472 14.0566V15.8633C55.4472 16.0287 55.3646 16.1113 55.1993 16.1113H52.5778C52.4125 16.1113 52.3298 16.0287 52.3298 15.8633V14.0566C52.3298 13.8913 52.4125 13.8087 52.5778 13.8087ZM55.207 13.8087H57.8285C57.9938 13.8087 58.0765 13.8913 58.0765 14.0566V15.8633C58.0765 16.0287 57.9938 16.1113 57.8285 16.1113H55.207C55.0417 16.1113 54.959 16.0287 54.959 15.8633V14.0566C54.959 13.8913 55.0417 13.8087 55.207 13.8087ZM57.8363 13.8087H60.4578C60.6231 13.8087 60.7057 13.8913 60.7057 14.0566V15.8633C60.7057 16.0287 60.6231 16.1113 60.4578 16.1113H57.8363C57.6709 16.1113 57.5883 16.0287 57.5883 15.8633V14.0566C57.5883 13.8913 57.6709 13.8087 57.8363 13.8087ZM64.4863 13.8087H66.9838V11.8603C66.9838 11.6713 66.9189 11.5119 66.789 11.382C66.6591 11.2521 66.4997 11.1872 66.3107 11.1872H64.876C64.7107 11.1872 64.569 11.2403 64.4509 11.3466C64.3328 11.4411 64.256 11.5709 64.2206 11.7363L63.9372 13.1533C63.9018 13.3186 63.9372 13.4721 64.0435 13.6138C64.1616 13.7437 64.3092 13.8087 64.4863 13.8087ZM61.9711 13.0293L62.3253 11.2049C62.3844 10.8861 62.4966 10.5908 62.6619 10.3192C62.839 10.0358 63.0457 9.79967 63.2818 9.61073C63.518 9.40999 63.7837 9.25648 64.0789 9.1502C64.3859 9.03211 64.7048 8.97307 65.0354 8.97307H66.0273C66.4288 8.97307 66.8067 9.04983 67.1609 9.20334C67.5152 9.35685 67.8222 9.5635 68.082 9.82329C68.3418 10.0831 68.5484 10.3901 68.702 10.7444C68.8555 11.0986 68.9322 11.4765 68.9322 11.878V13.9504C68.9322 14.2456 68.8732 14.529 68.7551 14.8006C68.6488 15.0604 68.4953 15.2906 68.2946 15.4914C68.1056 15.6803 67.8813 15.8338 67.6215 15.9519C67.3617 16.0582 67.0842 16.1113 66.789 16.1113H64.7343C64.38 16.1113 64.0435 16.0405 63.7247 15.8988C63.4058 15.7453 63.1165 15.4796 62.8567 15.1017C62.5851 15.4796 62.284 15.7453 61.9534 15.8988C61.6227 16.0405 61.2685 16.1113 60.8906 16.1113H60.4655C60.3002 16.1113 60.2175 16.0287 60.2175 15.8633V14.0566C60.2175 13.8913 60.3002 13.8087 60.4655 13.8087H61.0323C61.2685 13.8087 61.4692 13.7378 61.6345 13.5961C61.8117 13.4544 61.9239 13.2655 61.9711 13.0293Z"
        fill="#995BFF"></path>
    <path 
        d="M5.36903 18.7174C4.82584 18.7174 4.31217 18.6111 3.82802 18.3986C3.34387 18.1978 2.91876 17.9144 2.5527 17.5483C2.19844 17.1941 1.91504 16.7749 1.70248 16.2907C1.50174 15.8066 1.40137 15.2929 1.40137 14.7497V10.0735L3.34977 10.0912V14.4663C3.34977 14.7379 3.40291 14.9918 3.50919 15.228C3.61547 15.4641 3.75717 15.6708 3.9343 15.8479C4.11142 16.025 4.31807 16.1608 4.55424 16.2553C4.79042 16.3616 5.03839 16.4147 5.29818 16.4147H8.48649C8.93521 16.4147 9.31308 16.2612 9.6201 15.9542C9.92713 15.6472 10.0806 15.2752 10.0806 14.8383V3.48438H12.029V12.4825C12.029 12.7186 12.1117 12.9194 12.277 13.0847C12.4423 13.2382 12.6431 13.315 12.8793 13.315H13.9775C14.0483 13.315 14.1073 13.3445 14.1546 13.4035C14.2018 13.4508 14.2254 13.5039 14.2254 13.563V15.3519C14.2254 15.4228 14.2018 15.4877 14.1546 15.5468C14.1073 15.594 14.0483 15.6176 13.9775 15.6176H13.1981C12.9501 15.6176 12.7317 15.5822 12.5427 15.5114C12.3538 15.4405 12.1767 15.2929 12.0113 15.0685V15.3874C12.0113 15.7416 11.9287 16.1136 11.7634 16.5033C11.598 16.893 11.3619 17.2531 11.0548 17.5838C10.7596 17.9144 10.3936 18.186 9.95665 18.3986C9.51973 18.6111 9.02377 18.7174 8.46877 18.7174H5.36903Z"
        fill="#995BFF"></path>
    <path 
        d="M18.6985 15.6176C18.2734 15.6176 17.8778 15.535 17.5117 15.3697C17.1456 15.2043 16.8209 14.9387 16.5375 14.5726C16.2541 14.9387 15.9235 15.2043 15.5456 15.3697C15.1795 15.535 14.7839 15.6176 14.3588 15.6176H13.9691C13.9101 15.6176 13.857 15.594 13.8097 15.5468C13.7507 15.4877 13.7212 15.4287 13.7212 15.3697V13.5807C13.7212 13.5098 13.7507 13.4508 13.8097 13.4035C13.857 13.3445 13.9101 13.315 13.9691 13.315H14.6954C14.9315 13.3032 15.1323 13.2146 15.2976 13.0493C15.4629 12.884 15.5456 12.6832 15.5456 12.4471V9.27646H17.494V12.4825C17.494 12.695 17.5826 12.8899 17.7597 13.067C17.9368 13.2323 18.1258 13.315 18.3265 13.315H18.8933C19.1295 13.315 19.3361 13.2441 19.5133 13.1024C19.6904 12.9489 19.8026 12.7541 19.8498 12.5179L20.4697 9.31189L22.3827 9.66614L21.8513 12.3585C21.7923 12.6065 21.8454 12.8308 22.0108 13.0316C22.1879 13.2205 22.4004 13.315 22.6484 13.315H23.1444C23.3805 13.315 23.5813 13.2382 23.7466 13.0847C23.9119 12.9194 23.9946 12.7186 23.9946 12.4825V8.81593H25.943V12.4648C25.943 12.7009 26.0257 12.9017 26.191 13.067C26.3563 13.2323 26.557 13.315 26.7932 13.315H27.5017C27.5726 13.315 27.6316 13.3445 27.6789 13.4035C27.7261 13.4508 27.7497 13.5039 27.7497 13.563V15.3519C27.7497 15.4228 27.7261 15.4877 27.6789 15.5468C27.6434 15.594 27.5844 15.6176 27.5017 15.6176H27.112C26.6869 15.6176 26.2914 15.535 25.9253 15.3697C25.5592 15.2043 25.2404 14.9387 24.9688 14.5726C24.6854 14.9387 24.3547 15.2043 23.9769 15.3697C23.599 15.535 23.1975 15.6176 22.7724 15.6176C22.3945 15.6176 22.0226 15.5409 21.6565 15.3874C21.2904 15.2221 20.9893 14.9505 20.7531 14.5726C20.4816 14.9505 20.1686 15.2221 19.8144 15.3874C19.4601 15.5409 19.0881 15.6176 18.6985 15.6176Z"
        fill="#995BFF"></path>
    <path 
        d="M35.3781 14.9446L32.3669 15.3519C30.9853 15.5291 29.6155 15.6176 28.2576 15.6176H27.4959C27.3542 15.6176 27.2715 15.535 27.2479 15.3697V13.5807C27.2479 13.5098 27.2716 13.4508 27.3188 13.4035C27.3542 13.3445 27.4133 13.315 27.4959 13.315H29.2672C29.2082 13.2323 29.155 13.1497 29.1078 13.067C29.0724 12.9725 29.0428 12.8781 29.0192 12.7836L28.6827 11.03C28.6 10.6049 28.6177 10.2034 28.7358 9.82556C28.8539 9.43588 29.0369 9.09343 29.2849 8.79821C29.5447 8.49119 29.8576 8.24912 30.2237 8.07199C30.5897 7.89486 30.9853 7.8063 31.4104 7.8063H34.5633V10.0204H31.3219C31.0975 10.0204 30.9145 10.109 30.7728 10.2861C30.6311 10.4514 30.5838 10.6462 30.6311 10.8706L31.127 13.2618L35.0593 12.8367L35.3781 14.9446Z"
        fill="#995BFF"></path>
    <path 
        d="M39.6313 11.0655C39.5486 11.1245 39.4659 11.2072 39.3833 11.3134C39.3124 11.4079 39.277 11.5437 39.277 11.7208V12.4648C39.277 12.5828 39.3006 12.7068 39.3478 12.8367C39.4069 12.9666 39.4836 13.0906 39.5781 13.2087C39.6844 13.315 39.8084 13.4094 39.9501 13.4921C40.0918 13.563 40.2571 13.5984 40.446 13.5984H41.2608C41.4734 13.5984 41.6564 13.5571 41.8099 13.4744C41.9634 13.3799 42.0815 13.2736 42.1642 13.1556C42.2587 13.0375 42.3236 12.9194 42.359 12.8013C42.4063 12.6714 42.4299 12.5769 42.4299 12.5179V11.774C42.4299 11.6441 42.3945 11.5142 42.3236 11.3843C42.2646 11.2544 42.1701 11.1481 42.0402 11.0655C41.993 11.0418 41.8985 10.9828 41.7568 10.8883C41.6269 10.7939 41.4793 10.6994 41.314 10.6049C41.1368 10.4986 40.942 10.3747 40.7294 10.233L39.6313 11.0655ZM39.0113 6.72582L43.0853 9.43588C43.5812 9.76651 43.9178 10.1503 44.0949 10.5872C44.2838 11.0241 44.3783 11.4492 44.3783 11.8625V12.4648C44.3783 12.8544 44.3074 13.25 44.1657 13.6515C44.0358 14.0412 43.8292 14.3955 43.5458 14.7143C43.2624 15.0331 42.9081 15.2988 42.483 15.5114C42.0697 15.7121 41.5797 15.8125 41.0129 15.8125H40.6409C40.1095 15.8125 39.6372 15.7121 39.2239 15.5114C38.8106 15.2988 38.4622 15.0331 38.1788 14.7143C37.8954 14.3836 37.6828 14.0235 37.5411 13.6338C37.3994 13.2323 37.3286 12.8426 37.3286 12.4648V11.9157C37.3286 11.6323 37.364 11.3607 37.4349 11.1009C37.5175 10.8411 37.6238 10.6049 37.7537 10.3924C37.8836 10.168 38.0253 9.97316 38.1788 9.80784C38.3441 9.64252 38.5153 9.51263 38.6925 9.41816C38.7869 9.35912 38.8637 9.31779 38.9227 9.29417C38.9818 9.25875 39.029 9.22923 39.0644 9.20561C39.0999 9.1938 39.1235 9.18199 39.1353 9.17018L37.9485 8.37311L39.0113 6.72582Z"
        fill="#995BFF"></path>
    <path 
        d="M50.2025 15.3697C50.2025 15.535 50.1198 15.6176 49.9545 15.6176H49.4408C49.0157 15.6176 48.6142 15.5409 48.2363 15.3874C47.8585 15.2221 47.5278 14.9977 47.2444 14.7143C46.961 14.4309 46.7367 14.1002 46.5713 13.7224C46.406 13.3445 46.3234 12.943 46.3234 12.5179V3.48438H48.2718V12.4648C48.2718 12.7009 48.3544 12.9017 48.5198 13.067C48.6851 13.2323 48.8858 13.315 49.122 13.315H49.9545C50.0253 13.315 50.0844 13.3445 50.1316 13.4035C50.1789 13.4508 50.2025 13.5098 50.2025 13.5807V15.3697Z"
        fill="#995BFF"></path>
    <path 
        d="M49.9483 13.315H52.5698C52.7351 13.315 52.8177 13.3976 52.8177 13.563V15.3697C52.8177 15.535 52.7351 15.6176 52.5698 15.6176H49.9483C49.7829 15.6176 49.7003 15.535 49.7003 15.3697V13.563C49.7003 13.3976 49.7829 13.315 49.9483 13.315Z"
        fill="#995BFF"></path>
    <path 
        d="M52.5775 13.315H55.199C55.3643 13.315 55.447 13.3976 55.447 13.563V15.3697C55.447 15.535 55.3643 15.6176 55.199 15.6176H52.5775C52.4122 15.6176 52.3295 15.535 52.3295 15.3697V13.563C52.3295 13.3976 52.4122 13.315 52.5775 13.315Z"
        fill="#995BFF"></path>
    <path 
        d="M55.2067 13.315H57.8282C57.9936 13.315 58.0762 13.3976 58.0762 13.563V15.3697C58.0762 15.535 57.9936 15.6176 57.8282 15.6176H55.2067C55.0414 15.6176 54.9588 15.535 54.9588 15.3697V13.563C54.9588 13.3976 55.0414 13.315 55.2067 13.315Z"
        fill="#995BFF"></path>
    <path 
        d="M57.836 13.315H60.4575C60.6228 13.315 60.7055 13.3976 60.7055 13.563V15.3697C60.7055 15.535 60.6228 15.6176 60.4575 15.6176H57.836C57.6707 15.6176 57.588 15.535 57.588 15.3697V13.563C57.588 13.3976 57.6707 13.315 57.836 13.315Z"
        fill="#995BFF"></path>
    <path 
        d="M64.486 13.315H66.9835V11.3666C66.9835 11.1776 66.9186 11.0182 66.7887 10.8883C66.6588 10.7584 66.4994 10.6935 66.3105 10.6935H64.8757C64.7104 10.6935 64.5687 10.7466 64.4506 10.8529C64.3325 10.9474 64.2558 11.0773 64.2203 11.2426L63.9369 12.6596C63.9015 12.8249 63.9369 12.9784 64.0432 13.1201C64.1613 13.25 64.3089 13.315 64.486 13.315ZM61.9708 12.5356L62.3251 10.7112C62.3841 10.3924 62.4963 10.0972 62.6616 9.82556C62.8388 9.54215 63.0454 9.30598 63.2816 9.11704C63.5177 8.9163 63.7834 8.76279 64.0786 8.65651C64.3857 8.53843 64.7045 8.47938 65.0351 8.47938H66.0271C66.4285 8.47938 66.8064 8.55614 67.1607 8.70965C67.5149 8.86316 67.822 9.06981 68.0817 9.3296C68.3415 9.58939 68.5482 9.89641 68.7017 10.2507C68.8552 10.6049 68.932 10.9828 68.932 11.3843V13.4567C68.932 13.7519 68.8729 14.0353 68.7548 14.3069C68.6485 14.5667 68.495 14.7969 68.2943 14.9977C68.1054 15.1866 67.881 15.3401 67.6212 15.4582C67.3614 15.5645 67.0839 15.6176 66.7887 15.6176H64.734C64.3798 15.6176 64.0432 15.5468 63.7244 15.4051C63.4056 15.2516 63.1163 14.9859 62.8565 14.608C62.5849 14.9859 62.2837 15.2516 61.9531 15.4051C61.6225 15.5468 61.2682 15.6176 60.8903 15.6176H60.4652C60.2999 15.6176 60.2173 15.535 60.2173 15.3697V13.563C60.2173 13.3976 60.2999 13.315 60.4652 13.315H61.032C61.2682 13.315 61.469 13.2441 61.6343 13.1024C61.8114 12.9607 61.9236 12.7718 61.9708 12.5356Z"
        fill="#995BFF"></path>
</svg>